<svg width="150" height="150" viewBox="0 0 150 150" fill="none" xmlns="http://www.w3.org/2000/svg">
<path d="M133.333 16.667H16.6668C14.4567 16.667 12.3371 17.545 10.7743 19.1078C9.21147 20.6706 8.3335 22.7902 8.3335 25.0003V125C8.3335 127.21 9.21147 129.33 10.7743 130.893C12.3371 132.456 14.4567 133.334 16.6668 133.334H133.333C135.544 133.334 137.663 132.456 139.226 130.893C140.789 129.33 141.667 127.21 141.667 125V25.0003C141.667 22.7902 140.789 20.6706 139.226 19.1078C137.663 17.545 135.544 16.667 133.333 16.667ZM37.1668 33.3337C39.6391 33.3337 42.0558 34.0668 44.1115 35.4403C46.1671 36.8138 47.7692 38.766 48.7153 41.0501C49.6614 43.3342 49.909 45.8475 49.4266 48.2723C48.9443 50.697 47.7538 52.9243 46.0057 54.6725C44.2575 56.4207 42.0302 57.6112 39.6055 58.0935C37.1807 58.5758 34.6674 58.3282 32.3833 57.3822C30.0992 56.4361 28.147 54.8339 26.7735 52.7783C25.3999 50.7227 24.6668 48.3059 24.6668 45.8337C24.6668 42.5185 25.9838 39.339 28.328 36.9948C30.6722 34.6506 33.8516 33.3337 37.1668 33.3337ZM25.0002 112.5V95.417L50.0002 70.0837C50.7808 69.3076 51.8369 68.872 52.9377 68.872C54.0384 68.872 55.0945 69.3076 55.8752 70.0837L66.6668 80.6253L34.6668 112.5H25.0002ZM125 112.5H46.4585L72.4168 86.542L94.9168 64.042C95.6975 63.2659 96.7535 62.8304 97.8543 62.8304C98.9551 62.8304 100.011 63.2659 100.792 64.042L125 88.2503V112.5Z" fill="#F8F9FA"/>
</svg>